<svg width="125" height="70" viewBox="0 0 125 70" fill="none" xmlns="http://www.w3.org/2000/svg">
<path d="M24.8899 34.1506L24.8267 29.5362H25.5852L36.2045 18.7273H40.8189L29.5043 30.1683H29.1882L24.8899 34.1506ZM21.4134 43V10.6364H25.1428V43H21.4134ZM36.8366 43L27.3551 30.9901L30.0099 28.3984L41.5774 43H36.8366ZM54.4802 43.5057C52.2889 43.5057 50.3663 42.9842 48.7123 41.9412C47.0688 40.8983 45.7835 39.4392 44.8564 37.5639C43.9399 35.6887 43.4816 33.4974 43.4816 30.9901C43.4816 28.4616 43.9399 26.2546 44.8564 24.3688C45.7835 22.483 47.0688 21.0186 48.7123 19.9757C50.3663 18.9327 52.2889 18.4112 54.4802 18.4112C56.6715 18.4112 58.5889 18.9327 60.2323 19.9757C61.8863 21.0186 63.1716 22.483 64.0882 24.3688C65.0152 26.2546 65.4788 28.4616 65.4788 30.9901C65.4788 33.4974 65.0152 35.6887 64.0882 37.5639C63.1716 39.4392 61.8863 40.8983 60.2323 41.9412C58.5889 42.9842 56.6715 43.5057 54.4802 43.5057ZM54.4802 40.1555C56.1447 40.1555 57.5143 39.7289 58.5889 38.8755C59.6634 38.0222 60.4588 36.9002 60.9751 35.5096C61.4913 34.119 61.7494 32.6125 61.7494 30.9901C61.7494 29.3677 61.4913 27.8559 60.9751 26.4547C60.4588 25.0536 59.6634 23.921 58.5889 23.0572C57.5143 22.1933 56.1447 21.7614 54.4802 21.7614C52.8157 21.7614 51.4461 22.1933 50.3715 23.0572C49.297 23.921 48.5016 25.0536 47.9854 26.4547C47.4691 27.8559 47.211 29.3677 47.211 30.9901C47.211 32.6125 47.4691 34.119 47.9854 35.5096C48.5016 36.9002 49.297 38.0222 50.3715 38.8755C51.4461 39.7289 52.8157 40.1555 54.4802 40.1555ZM81.0324 43.5057C78.8412 43.5057 76.9185 42.9842 75.2645 41.9412C73.621 40.8983 72.3358 39.4392 71.4087 37.5639C70.4921 35.6887 70.0339 33.4974 70.0339 30.9901C70.0339 28.4616 70.4921 26.2546 71.4087 24.3688C72.3358 22.483 73.621 21.0186 75.2645 19.9757C76.9185 18.9327 78.8412 18.4112 81.0324 18.4112C83.2237 18.4112 85.1411 18.9327 86.7846 19.9757C88.4386 21.0186 89.7239 22.483 90.6404 24.3688C91.5675 26.2546 92.031 28.4616 92.031 30.9901C92.031 33.4974 91.5675 35.6887 90.6404 37.5639C89.7239 39.4392 88.4386 40.8983 86.7846 41.9412C85.1411 42.9842 83.2237 43.5057 81.0324 43.5057ZM81.0324 40.1555C82.697 40.1555 84.0665 39.7289 85.1411 38.8755C86.2157 38.0222 87.0111 36.9002 87.5273 35.5096C88.0435 34.119 88.3016 32.6125 88.3016 30.9901C88.3016 29.3677 88.0435 27.8559 87.5273 26.4547C87.0111 25.0536 86.2157 23.921 85.1411 23.0572C84.0665 22.1933 82.697 21.7614 81.0324 21.7614C79.3679 21.7614 77.9984 22.1933 76.9238 23.0572C75.8492 23.921 75.0538 25.0536 74.5376 26.4547C74.0214 27.8559 73.7633 29.3677 73.7633 30.9901C73.7633 32.6125 74.0214 34.119 74.5376 35.5096C75.0538 36.9002 75.8492 38.0222 76.9238 38.8755C77.9984 39.7289 79.3679 40.1555 81.0324 40.1555ZM100.442 43.2528C99.6623 43.2528 98.9934 42.9737 98.435 42.4153C97.8767 41.8569 97.5975 41.188 97.5975 40.4084C97.5975 39.6288 97.8767 38.9598 98.435 38.4015C98.9934 37.8431 99.6623 37.5639 100.442 37.5639C101.222 37.5639 101.891 37.8431 102.449 38.4015C103.007 38.9598 103.286 39.6288 103.286 40.4084C103.286 40.9246 103.155 41.3987 102.891 41.8306C102.638 42.2625 102.296 42.6102 101.864 42.8736C101.443 43.1264 100.969 43.2528 100.442 43.2528Z" fill="black"/>
<path d="M38.0056 41.2181C37.661 42.6543 53.3518 58.9495 69.0028 49.7435C84.6538 40.5374 100 41.2181 100 41.2181" stroke="black" stroke-width="3.44413"/>
<path d="M2.28409 67.1534C1.86932 67.1534 1.50568 67.0753 1.19318 66.919C0.880682 66.7599 0.649148 66.5312 0.49858 66.233C0.348011 65.9318 0.306818 65.5682 0.375 65.142C0.440341 64.767 0.566761 64.4631 0.754261 64.2301C0.941761 63.9943 1.16903 63.8097 1.43608 63.6761C1.70597 63.5398 1.99574 63.4389 2.3054 63.3736C2.6179 63.3054 2.92898 63.2528 3.23864 63.2159C3.64205 63.1648 3.97017 63.125 4.22301 63.0966C4.47585 63.0682 4.66619 63.0213 4.79403 62.956C4.92188 62.8906 5 62.7784 5.02841 62.6193V62.5852C5.09659 62.1676 5.04119 61.8423 4.86222 61.6094C4.68324 61.3736 4.36364 61.2557 3.90341 61.2557C3.42614 61.2557 3.02699 61.3608 2.70597 61.571C2.38494 61.7812 2.14773 62.0057 1.99432 62.2443L1.10795 61.9034C1.34091 61.5057 1.61932 61.196 1.94318 60.9744C2.26705 60.75 2.60653 60.5937 2.96165 60.5057C3.31676 60.4148 3.65909 60.3693 3.98864 60.3693C4.19886 60.3693 4.43608 60.3949 4.70028 60.446C4.96449 60.4943 5.21165 60.5952 5.44176 60.7486C5.67472 60.902 5.84943 61.1335 5.96591 61.4432C6.08523 61.7528 6.10227 62.1676 6.01705 62.6875L5.30114 67H4.29545L4.44886 66.1136H4.39773C4.30682 66.2557 4.16761 66.4077 3.98011 66.5696C3.79545 66.7315 3.56108 66.8693 3.27699 66.983C2.99574 67.0966 2.66477 67.1534 2.28409 67.1534ZM2.57386 66.25C2.97159 66.25 3.3196 66.1719 3.6179 66.0156C3.91903 65.8594 4.16051 65.6577 4.34233 65.4105C4.52699 65.1634 4.64205 64.9034 4.6875 64.6307L4.84091 63.7102C4.78977 63.7614 4.68892 63.8082 4.53835 63.8509C4.38778 63.8906 4.21733 63.9261 4.02699 63.9574C3.83949 63.9858 3.65625 64.0114 3.47727 64.0341C3.30114 64.054 3.15909 64.071 3.05114 64.0852C2.78409 64.1193 2.52983 64.1747 2.28835 64.2514C2.04972 64.3253 1.84801 64.4375 1.68324 64.5881C1.52131 64.7358 1.42045 64.9375 1.38068 65.1932C1.32102 65.5426 1.40483 65.8068 1.6321 65.9858C1.85938 66.1619 2.1733 66.25 2.57386 66.25ZM7.27308 67L8.72195 58.2727H9.72763L9.19922 61.4943H9.28445C9.37536 61.3807 9.50178 61.2358 9.66371 61.0597C9.82564 60.8807 10.043 60.7216 10.3157 60.5824C10.5884 60.4403 10.9379 60.3693 11.364 60.3693C11.9151 60.3693 12.3768 60.5071 12.7489 60.7827C13.1239 61.0582 13.3867 61.4489 13.5373 61.9545C13.6907 62.4602 13.7106 63.0568 13.5969 63.7443C13.4833 64.4375 13.266 65.0384 12.945 65.5469C12.6268 66.0526 12.2347 66.4446 11.7688 66.723C11.3058 66.9986 10.8015 67.1364 10.256 67.1364C9.83558 67.1364 9.5103 67.0668 9.28018 66.9276C9.05291 66.7855 8.8853 66.625 8.77734 66.446C8.67223 66.2642 8.59126 66.1136 8.53445 65.9943H8.41513L8.24467 67H7.27308ZM8.80717 63.7273C8.72763 64.2216 8.72905 64.6577 8.81143 65.0355C8.89382 65.4105 9.05717 65.7045 9.30149 65.9176C9.54581 66.1278 9.86967 66.233 10.2731 66.233C10.6935 66.233 11.0629 66.1222 11.381 65.9006C11.6992 65.6761 11.9606 65.375 12.1651 64.9972C12.3697 64.6165 12.5117 64.1932 12.5913 63.7273C12.6651 63.267 12.6623 62.8523 12.5827 62.483C12.506 62.1108 12.3441 61.8168 12.0969 61.6009C11.8526 61.3821 11.5174 61.2727 11.0913 61.2727C10.6822 61.2727 10.32 61.3764 10.0046 61.5838C9.69212 61.7884 9.43359 62.0753 9.22905 62.4446C9.02734 62.8111 8.88672 63.2386 8.80717 63.7273ZM19.158 64.3239L19.8058 60.4545H20.8114L19.7205 67H18.7148L18.9023 65.892H18.8342C18.6296 66.2244 18.3441 66.5071 17.9776 66.7401C17.6112 66.9702 17.1808 67.0852 16.6864 67.0852C16.2773 67.0852 15.9279 66.9957 15.6381 66.8168C15.3512 66.6349 15.1467 66.3622 15.0245 65.9986C14.9052 65.6321 14.891 65.1705 14.9819 64.6136L15.6808 60.4545H16.6864L16.0046 64.5455C15.9279 65.0227 16.0004 65.4034 16.2219 65.6875C16.4435 65.9716 16.7631 66.1136 17.1808 66.1136C17.4308 66.1136 17.695 66.0497 17.9734 65.9219C18.2546 65.794 18.5046 65.598 18.7234 65.3338C18.945 65.0696 19.0898 64.733 19.158 64.3239ZM23.2159 63.0625L22.5682 67H21.5625L22.6534 60.4545H23.625L23.4545 61.4773H23.5398C23.7443 61.1449 24.0213 60.8778 24.3707 60.6761C24.7202 60.4716 25.142 60.3693 25.6364 60.3693C26.0739 60.3693 26.4432 60.4602 26.7443 60.642C27.0483 60.821 27.2628 61.0938 27.3878 61.4602C27.5156 61.8239 27.5341 62.2841 27.4432 62.8409L26.7443 67H25.7386L26.4205 62.9091C26.5057 62.3977 26.4389 61.9972 26.2202 61.7074C26.0043 61.4176 25.6619 61.2727 25.1932 61.2727C24.8693 61.2727 24.5696 61.3423 24.294 61.4815C24.0213 61.6207 23.7898 61.8239 23.5994 62.0909C23.4119 62.358 23.2841 62.6818 23.2159 63.0625ZM31.0451 67.1364C30.4968 67.1364 30.0366 66.9986 29.6644 66.723C29.2923 66.4446 29.0295 66.0526 28.8761 65.5469C28.7255 65.0384 28.707 64.4375 28.8207 63.7443C28.9371 63.0568 29.1545 62.4602 29.4727 61.9545C29.7937 61.4489 30.1871 61.0582 30.6531 60.7827C31.119 60.5071 31.6275 60.3693 32.1786 60.3693C32.6048 60.3693 32.93 60.4403 33.1545 60.5824C33.3817 60.7216 33.5465 60.8807 33.6488 61.0597C33.7511 61.2358 33.8292 61.3807 33.8832 61.4943H33.9684L34.5053 58.2727H35.511L34.0621 67H33.0906L33.261 65.9943H33.1417C33.0479 66.1136 32.9173 66.2642 32.7496 66.446C32.582 66.625 32.3604 66.7855 32.0849 66.9276C31.8121 67.0668 31.4656 67.1364 31.0451 67.1364ZM31.2923 66.233C31.6957 66.233 32.0565 66.1278 32.3746 65.9176C32.6957 65.7045 32.9627 65.4105 33.1758 65.0355C33.3888 64.6577 33.5366 64.2216 33.619 63.7273C33.7013 63.2386 33.6985 62.8111 33.6104 62.4446C33.5224 62.0753 33.3533 61.7884 33.1033 61.5838C32.8533 61.3764 32.5224 61.2727 32.1104 61.2727C31.6871 61.2727 31.3192 61.3821 31.0067 61.6009C30.6942 61.8168 30.44 62.1108 30.244 62.483C30.0479 62.8523 29.9116 63.267 29.8349 63.7273C29.7582 64.1932 29.7567 64.6165 29.8306 64.9972C29.9045 65.375 30.0607 65.6761 30.2994 65.9006C30.5408 66.1222 30.8718 66.233 31.2923 66.233ZM37.9442 67.1534C37.5295 67.1534 37.1658 67.0753 36.8533 66.919C36.5408 66.7599 36.3093 66.5312 36.1587 66.233C36.0082 65.9318 35.967 65.5682 36.0352 65.142C36.1005 64.767 36.2269 64.4631 36.4144 64.2301C36.6019 63.9943 36.8292 63.8097 37.0962 63.6761C37.3661 63.5398 37.6559 63.4389 37.9656 63.3736C38.2781 63.3054 38.5891 63.2528 38.8988 63.2159C39.3022 63.1648 39.6303 63.125 39.8832 63.0966C40.136 63.0682 40.3263 63.0213 40.4542 62.956C40.582 62.8906 40.6602 62.7784 40.6886 62.6193V62.5852C40.7567 62.1676 40.7013 61.8423 40.5224 61.6094C40.3434 61.3736 40.0238 61.2557 39.5636 61.2557C39.0863 61.2557 38.6871 61.3608 38.3661 61.571C38.0451 61.7812 37.8079 62.0057 37.6545 62.2443L36.7681 61.9034C37.0011 61.5057 37.2795 61.196 37.6033 60.9744C37.9272 60.75 38.2667 60.5937 38.6218 60.5057C38.9769 60.4148 39.3192 60.3693 39.6488 60.3693C39.859 60.3693 40.0962 60.3949 40.3604 60.446C40.6246 60.4943 40.8718 60.5952 41.1019 60.7486C41.3349 60.902 41.5096 61.1335 41.6261 61.4432C41.7454 61.7528 41.7624 62.1676 41.6772 62.6875L40.9613 67H39.9556L40.109 66.1136H40.0579C39.967 66.2557 39.8278 66.4077 39.6403 66.5696C39.4556 66.7315 39.2212 66.8693 38.9371 66.983C38.6559 67.0966 38.3249 67.1534 37.9442 67.1534ZM38.234 66.25C38.6317 66.25 38.9798 66.1719 39.2781 66.0156C39.5792 65.8594 39.8207 65.6577 40.0025 65.4105C40.1871 65.1634 40.3022 64.9034 40.3477 64.6307L40.5011 63.7102C40.4499 63.7614 40.3491 63.8082 40.1985 63.8509C40.0479 63.8906 39.8775 63.9261 39.6871 63.9574C39.4996 63.9858 39.3164 64.0114 39.1374 64.0341C38.9613 64.054 38.8192 64.071 38.7113 64.0852C38.4442 64.1193 38.19 64.1747 37.9485 64.2514C37.7099 64.3253 37.5082 64.4375 37.3434 64.5881C37.1815 64.7358 37.0806 64.9375 37.0408 65.1932C36.9812 65.5426 37.065 65.8068 37.2923 65.9858C37.5195 66.1619 37.8335 66.25 38.234 66.25ZM44.4503 63.0625L43.8026 67H42.7969L43.8878 60.4545H44.8594L44.6889 61.4773H44.7741C44.9787 61.1449 45.2557 60.8778 45.6051 60.6761C45.9545 60.4716 46.3764 60.3693 46.8707 60.3693C47.3082 60.3693 47.6776 60.4602 47.9787 60.642C48.2827 60.821 48.4972 61.0938 48.6222 61.4602C48.75 61.8239 48.7685 62.2841 48.6776 62.8409L47.9787 67H46.973L47.6548 62.9091C47.7401 62.3977 47.6733 61.9972 47.4545 61.7074C47.2386 61.4176 46.8963 61.2727 46.4276 61.2727C46.1037 61.2727 45.804 61.3423 45.5284 61.4815C45.2557 61.6207 45.0241 61.8239 44.8338 62.0909C44.6463 62.358 44.5185 62.6818 44.4503 63.0625ZM52.4585 67.1364C51.842 67.1364 51.3363 66.9915 50.9414 66.7017C50.5494 66.4119 50.2766 66.0128 50.1232 65.5043C49.9698 64.9957 49.9471 64.4148 50.055 63.7614C50.163 63.0966 50.3817 62.5099 50.7113 62.0014C51.0408 61.4901 51.4513 61.0909 51.9428 60.804C52.4343 60.5142 52.9755 60.3693 53.5664 60.3693C54.0266 60.3693 54.4272 60.4545 54.7681 60.625C55.109 60.7955 55.3718 61.0341 55.5565 61.3409C55.7411 61.6477 55.8278 62.0057 55.8164 62.4148H54.8107C54.7823 62.1165 54.6545 61.8523 54.4272 61.6222C54.2028 61.3892 53.8704 61.2727 53.43 61.2727C53.038 61.2727 52.6772 61.375 52.3477 61.5795C52.0181 61.7812 51.7411 62.0668 51.5167 62.4361C51.2923 62.8026 51.1403 63.233 51.0607 63.7273C50.9755 64.233 50.9826 64.6733 51.082 65.0483C51.1815 65.4233 51.3619 65.7145 51.6232 65.9219C51.8846 66.1293 52.2141 66.233 52.6119 66.233C52.8732 66.233 53.1175 66.1875 53.3448 66.0966C53.5721 66.0057 53.7738 65.875 53.9499 65.7045C54.1261 65.5341 54.2653 65.3295 54.3675 65.0909H55.3732C55.2482 65.4773 55.0479 65.8253 54.7724 66.1349C54.4968 66.4418 54.163 66.6861 53.771 66.8679C53.3789 67.0469 52.9414 67.1364 52.4585 67.1364ZM59.2468 67.1364C58.619 67.1364 58.1005 66.9972 57.6914 66.7188C57.2823 66.4375 56.9968 66.0455 56.8349 65.5426C56.6729 65.0369 56.6474 64.4489 56.7582 63.7784C56.869 63.108 57.0891 62.517 57.4187 62.0057C57.7482 61.4915 58.1587 61.0909 58.6502 60.804C59.1417 60.5142 59.6815 60.3693 60.2695 60.3693C60.6104 60.3693 60.9386 60.4261 61.2539 60.5398C61.5692 60.6534 61.842 60.8381 62.0721 61.0938C62.3022 61.3466 62.4627 61.6818 62.5536 62.0994C62.6445 62.517 62.6388 63.0312 62.5366 63.642L62.4684 64.0682H57.4229L57.5593 63.1989H61.582C61.6474 62.8295 61.6303 62.5 61.5309 62.2102C61.4343 61.9205 61.2653 61.6918 61.0238 61.5241C60.7852 61.3565 60.4826 61.2727 60.1161 61.2727C59.7383 61.2727 59.386 61.375 59.0593 61.5795C58.7326 61.7812 58.4599 62.0369 58.2411 62.3466C58.0224 62.6534 57.886 62.9659 57.832 63.2841L57.7127 64.0341C57.6275 64.5767 57.6403 65.0085 57.7511 65.3295C57.8647 65.6506 58.0621 65.8821 58.3434 66.0241C58.6246 66.1634 58.9769 66.233 59.4002 66.233C59.6701 66.233 59.9187 66.196 60.146 66.1222C60.3732 66.0455 60.5763 65.9318 60.7553 65.7812C60.9343 65.6278 61.0849 65.4375 61.207 65.2102L62.1275 65.483C61.9712 65.8125 61.7511 66.1023 61.467 66.3523C61.1857 66.5994 60.8562 66.7926 60.4783 66.9318C60.1033 67.0682 59.6928 67.1364 59.2468 67.1364ZM66.9023 67L67.9933 60.4545H68.9989L67.908 67H66.9023ZM68.8029 59.3466C68.6069 59.3466 68.4379 59.2798 68.2958 59.1463C68.1566 59.0128 68.087 58.8523 68.087 58.6648C68.087 58.4773 68.1566 58.3168 68.2958 58.1832C68.4379 58.0497 68.6069 57.983 68.8029 57.983C68.9989 57.983 69.1665 58.0497 69.3058 58.1832C69.4478 58.3168 69.5188 58.4773 69.5188 58.6648C69.5188 58.8523 69.4478 59.0128 69.3058 59.1463C69.1665 59.2798 68.9989 59.3466 68.8029 59.3466ZM71.4034 63.0625L70.7557 67H69.75L70.8409 60.4545H71.8125L71.642 61.4773H71.7273C71.9318 61.1449 72.2088 60.8778 72.5582 60.6761C72.9077 60.4716 73.3295 60.3693 73.8239 60.3693C74.2614 60.3693 74.6307 60.4602 74.9318 60.642C75.2358 60.821 75.4503 61.0938 75.5753 61.4602C75.7031 61.8239 75.7216 62.2841 75.6307 62.8409L74.9318 67H73.9261L74.608 62.9091C74.6932 62.3977 74.6264 61.9972 74.4077 61.7074C74.1918 61.4176 73.8494 61.2727 73.3807 61.2727C73.0568 61.2727 72.7571 61.3423 72.4815 61.4815C72.2088 61.6207 71.9773 61.8239 71.7869 62.0909C71.5994 62.358 71.4716 62.6818 71.4034 63.0625ZM82.6076 67.1364C82.0593 67.1364 81.5991 66.9986 81.2269 66.723C80.8548 66.4446 80.592 66.0526 80.4386 65.5469C80.288 65.0384 80.2695 64.4375 80.3832 63.7443C80.4996 63.0568 80.717 62.4602 81.0352 61.9545C81.3562 61.4489 81.7496 61.0582 82.2156 60.7827C82.6815 60.5071 83.19 60.3693 83.7411 60.3693C84.1673 60.3693 84.4925 60.4403 84.717 60.5824C84.9442 60.7216 85.109 60.8807 85.2113 61.0597C85.3136 61.2358 85.3917 61.3807 85.4457 61.4943H85.5309L86.0678 58.2727H87.0735L85.6246 67H84.6531L84.8235 65.9943H84.7042C84.6104 66.1136 84.4798 66.2642 84.3121 66.446C84.1445 66.625 83.9229 66.7855 83.6474 66.9276C83.3746 67.0668 83.0281 67.1364 82.6076 67.1364ZM82.8548 66.233C83.2582 66.233 83.619 66.1278 83.9371 65.9176C84.2582 65.7045 84.5252 65.4105 84.7383 65.0355C84.9513 64.6577 85.0991 64.2216 85.1815 63.7273C85.2638 63.2386 85.261 62.8111 85.1729 62.4446C85.0849 62.0753 84.9158 61.7884 84.6658 61.5838C84.4158 61.3764 84.0849 61.2727 83.6729 61.2727C83.2496 61.2727 82.8817 61.3821 82.5692 61.6009C82.2567 61.8168 82.0025 62.1108 81.8065 62.483C81.6104 62.8523 81.4741 63.267 81.3974 63.7273C81.3207 64.1932 81.3192 64.6165 81.3931 64.9972C81.467 65.375 81.6232 65.6761 81.8619 65.9006C82.1033 66.1222 82.4343 66.233 82.8548 66.233ZM90.3249 67.1364C89.6971 67.1364 89.1786 66.9972 88.7695 66.7188C88.3604 66.4375 88.0749 66.0455 87.913 65.5426C87.7511 65.0369 87.7255 64.4489 87.8363 63.7784C87.9471 63.108 88.1673 62.517 88.4968 62.0057C88.8263 61.4915 89.2369 61.0909 89.7283 60.804C90.2198 60.5142 90.7596 60.3693 91.3477 60.3693C91.6886 60.3693 92.0167 60.4261 92.332 60.5398C92.6474 60.6534 92.9201 60.8381 93.1502 61.0938C93.3803 61.3466 93.5408 61.6818 93.6317 62.0994C93.7227 62.517 93.717 63.0312 93.6147 63.642L93.5465 64.0682H88.5011L88.6374 63.1989H92.6602C92.7255 62.8295 92.7085 62.5 92.609 62.2102C92.5124 61.9205 92.3434 61.6918 92.1019 61.5241C91.8633 61.3565 91.5607 61.2727 91.1942 61.2727C90.8164 61.2727 90.4641 61.375 90.1374 61.5795C89.8107 61.7812 89.538 62.0369 89.3192 62.3466C89.1005 62.6534 88.9641 62.9659 88.9102 63.2841L88.7908 64.0341C88.7056 64.5767 88.7184 65.0085 88.8292 65.3295C88.9428 65.6506 89.1403 65.8821 89.4215 66.0241C89.7028 66.1634 90.055 66.233 90.4783 66.233C90.7482 66.233 90.9968 66.196 91.2241 66.1222C91.4513 66.0455 91.6545 65.9318 91.8335 65.7812C92.0124 65.6278 92.163 65.4375 92.2852 65.2102L93.2056 65.483C93.0494 65.8125 92.8292 66.1023 92.5451 66.3523C92.2638 66.5994 91.9343 66.7926 91.5565 66.9318C91.1815 67.0682 90.771 67.1364 90.3249 67.1364ZM97.06 58.2727L95.6112 67H94.6055L96.0543 58.2727H97.06ZM97.4531 67L98.544 60.4545H99.5497L98.4588 67H97.4531ZM99.3537 59.3466C99.1577 59.3466 98.9886 59.2798 98.8466 59.1463C98.7074 59.0128 98.6378 58.8523 98.6378 58.6648C98.6378 58.4773 98.7074 58.3168 98.8466 58.1832C98.9886 58.0497 99.1577 57.983 99.3537 57.983C99.5497 57.983 99.7173 58.0497 99.8565 58.1832C99.9986 58.3168 100.07 58.4773 100.07 58.6648C100.07 58.8523 99.9986 59.0128 99.8565 59.1463C99.7173 59.2798 99.5497 59.3466 99.3537 59.3466ZM106.744 60.4545L103.233 67H102.21L100.88 60.4545H101.929L102.866 65.6705H102.934L105.61 60.4545H106.744ZM109.473 67.1364C108.846 67.1364 108.327 66.9972 107.918 66.7188C107.509 66.4375 107.223 66.0455 107.061 65.5426C106.9 65.0369 106.874 64.4489 106.985 63.7784C107.096 63.108 107.316 62.517 107.645 62.0057C107.975 61.4915 108.385 61.0909 108.877 60.804C109.368 60.5142 109.908 60.3693 110.496 60.3693C110.837 60.3693 111.165 60.4261 111.48 60.5398C111.796 60.6534 112.069 60.8381 112.299 61.0938C112.529 61.3466 112.689 61.6818 112.78 62.0994C112.871 62.517 112.865 63.0312 112.763 63.642L112.695 64.0682H107.65L107.786 63.1989H111.809C111.874 62.8295 111.857 62.5 111.757 62.2102C111.661 61.9205 111.492 61.6918 111.25 61.5241C111.012 61.3565 110.709 61.2727 110.343 61.2727C109.965 61.2727 109.613 61.375 109.286 61.5795C108.959 61.7812 108.686 62.0369 108.468 62.3466C108.249 62.6534 108.113 62.9659 108.059 63.2841L107.939 64.0341C107.854 64.5767 107.867 65.0085 107.978 65.3295C108.091 65.6506 108.289 65.8821 108.57 66.0241C108.851 66.1634 109.203 66.233 109.627 66.233C109.897 66.233 110.145 66.196 110.373 66.1222C110.6 66.0455 110.803 65.9318 110.982 65.7812C111.161 65.6278 111.311 65.4375 111.434 65.2102L112.354 65.483C112.198 65.8125 111.978 66.1023 111.694 66.3523C111.412 66.5994 111.083 66.7926 110.705 66.9318C110.33 67.0682 109.919 67.1364 109.473 67.1364ZM113.754 67L114.845 60.4545H115.816L115.646 61.4432H115.714C115.885 61.1193 116.145 60.8565 116.494 60.6548C116.843 60.4531 117.214 60.3523 117.606 60.3523C117.683 60.3523 117.775 60.3537 117.883 60.3565C117.991 60.3565 118.075 60.3608 118.135 60.3693L117.964 61.392C117.93 61.3835 117.853 61.3707 117.734 61.3537C117.615 61.3338 117.487 61.3239 117.35 61.3239C117.032 61.3239 116.738 61.3906 116.468 61.5241C116.199 61.6548 115.973 61.8366 115.791 62.0696C115.609 62.2997 115.493 62.5625 115.441 62.858L114.76 67H113.754ZM118.689 69.4545C118.518 69.4545 118.368 69.4403 118.237 69.4119C118.109 69.3864 118.021 69.3608 117.973 69.3352L118.382 68.4489C118.615 68.5114 118.822 68.5298 119.004 68.5043C119.189 68.4815 119.363 68.392 119.528 68.2358C119.696 68.0824 119.87 67.8409 120.052 67.5114L120.333 67L119.021 60.4545H120.069L121.007 65.6875H121.075L123.751 60.4545H124.885L120.87 67.946C120.683 68.2955 120.477 68.581 120.252 68.8026C120.028 69.0241 119.785 69.1875 119.524 69.2926C119.262 69.4006 118.984 69.4545 118.689 69.4545Z" fill="black"/>
</svg>
